<svg xmlns="http://www.w3.org/2000/svg" data-name="DH" viewBox="0 0 51200 51200"><defs><clipPath id="a"><path d="M50531 31260c-3486-2782-6111-7130-7051-9560 0 0 3486 2742 6464 2977-1646-1100-7718-7365-7561-9480 0 0 3735 3369 6500 3251-3447-1828-7100-8641-10146-11400-1900-1719-5054-444-3878 2428 3054 7467-4062 7719-5000 7014-575-418 100-470 1254-52 0 0-1620-2246-2090-3030 0 0 679 0 940 313-365-1100-2300-4544-2716-5040l836 144C26047 6200 20680 5262 20641 6800c-1933-288-3317-78-3160 1253 138 1172 1100 1434 1227 1462-391-862 1932-2278 3342 490 0 0-1644 111-2741 0-39 400 1710 477 2507 778 274 587-78 3368-2559 4870 1800-470 2011 340 2011 340-941 700-8069 493-5015-6973 1176-2873-1981-4148-3878-2429-3044 2758-6700 9571-10146 11400 2768 118 6500-3251 6500-3251 156 2115-5916 8383-7561 9480 2977-235 6464-2977 6464-2977C6700 23674 4070 28022 584 30800c3760-861 8657-6032 8657-6032C8183 28140 5833 30800 5833 30800c1800 549 7051-6659 7051-6659 157 1645-1515 5014-2559 6346 3761-1753 6634-7521 6634-7521s287 2193-1620 4857c1567 157 3931-2938 4400-5800 800 1567 1082 3505 65 4258-2611 1932-2642 6438-3689 6216-600-26-46-2639-516-3400-188-300-783-258-1332 0-391-52-1300 456-852 978-183-209 438-593 800-456a884 884 0 00 88 637c183 313 722 251 905 356s26 1436-209 1800c-444-157-1567-1800-1829-2064-286-286-1070 79-940 993-261 235-1175 836-392 1700-313-340 262-1150 549-1150 209 340 653 679 783 575s1254-888 1176 575c-500 123-2422-43-2520 310s0 989 0 989c-451 176-451 1606 333 1763-177-373-177-980-20-1313 470 353 940 177 1058-39-157-372 542-1772 1625-39 229 366 216 927-515 1436-387 269 169 836 169 836 131 313-809 783-1070 653 940 522 1462-313 1462-313 522 0 1228-261 1280-758-235-627-454-1795 100-2794 993-1776 4283-2586 5224-4388 261 1959-5300 9115-5929 11700 1306-941 5354-4700 5354-4700 313 1907-1585 5362-1700 7052 1400-752 3564-4518 5014-5067 0 0 816 8018 1338 8645 1150-2194 1800-8436 1800-8436s3186 3395 4766 4426c-112-1690-2220-4257-1906-6163 0 0 4048 3760 5354 4700-627-2585-6190-9741-5929-11700 941 1800 4231 2612 5224 4388 558 1000 339 2168 100 2795 52 500 757 757 1280 757 0 0 522 835 1462 313-261 131-1200-340-1071-653 0 0 556-567 170-835-731-510-744-1071-515-1437 1083-1732 1782-333 1625 39 118 215 588 392 1058 39 157 333 157 940-20 1313 784-157 784-1587 333-1763 0 0 100-637 0-989s-2017-186-2520-310c-78-1462 1045-679 1175-575s575-235 784-575c287 0 862 810 548 1150 784-862-130-1463-392-1700 131-914-653-1279-940-992-261 261-1384 1906-1828 2063-235-366-391-1700-209-1800s722-43 900-356a876 876 0 00 89-637c362-137 983 247 800 456 444-522-461-1031-852-978-549-261-1144-306-1332 0-471 759 84 3372-516 3400-1047 222-1078-4284-3689-6217-1017-752-731-2690 65-4257 470 2860 2834 5955 4400 5800-1907-2664-1620-4858-1620-4858s2873 5769 6634 7522c-1045-1332-2716-4700-2559-6346 0 0 5249 7208 7051 6660 0 0-2350-2664-3408-6034 0 0 4900 5172 8657 6034" fill="none"/></clipPath></defs><g clip-path="url(#a)"><path d="M0 5500h51200v14000H0"/><path d="M0 19500h51200v14000H0" fill="red"/><path d="M0 33500h51200v14000H0" fill="#fc0"/></g></svg>