<svg xmlns="http://www.w3.org/2000/svg" viewBox="0 0 3600 3000"><defs><clipPath id="a"><path d="M3584 1846a1835 1835 0 01-500-683s249 200 462 213C3424 1300 2991 850 3000 700c0 0 267 241 464 233-244-133-505-620-722-817-136-122-361-31-277 174 218 533-291 551-358 500-41-30 8-34 90 0 0 0-116-160-149-216a106 106 0 01 67 22 2372 2372 0 00-194-360l59 10C1835 56 1452-11 1449 100c-138-21-237-6-226 89a118 118 0 00 88 105c-28-62 138-163 238 35a1444 1444 0 01-200 0c0 28 122 34 179 55a362 362 0 01-178 347c129-33 144 24 144 24-68 51-577 36-359-500 84-200-141-300-277-173C641 281 380 768 134 900 331 907 600 666 600 666c11 151-422 600-540 677 211-17 460-213 460-213a1827 1827 0 01-500 683c269-61 619-431 619-431a1350 1350 0 01-244 431c129 39 500-476 500-476 11 118-108 359-183 454 269-125 474-537 474-537A534 534 0 01 1070 1600c112 11 281-210 314-415 57 112 78 251 5 300C1200 1628 1200 1950 1126 1934c-43 0 0-188-37-242-14-22-56-19-100 0-28 0-93 32-61 70-13-15 31-43 57-33a64 64 0 00 6 46c13 22 52 18 65 25s0 100-15 129c-32-11-112-129-131-148s-76 6-67 71c-19 17-84 60-28 122-22-25 19-82 39-82 15 24 47 48 56 41s90-64 84 41c-36 8-173 0-180 22a218 218 0 00 0 70c-32 13-32 115 24 126a120 120 0 01 0-93 52 52 0 00 75 0c-11-27 39-127 116 0 17 26 16 66-37 100-27 19 13 59 13 59 9 23-58 56-77 47a77 77 0 00 100-22c37 0 87-19 91-55a248 248 0 01 7-200c71-127 306-185 374-314 18 140-379 651-424 836 93-67 382-336 382-336 23 137-113 383-121 500 100-54 255-323 358-362 0 0 59 573 100 618 82-157 128-600 128-600a2960 2960 0 00 341 316c-8-120-159-300-136-440 0 0 289 269 382 336-45-185-442-700-424-836 68 129 300 187 374 313a250 250 0 01 7 200c0 35 54 54 91 54a76 76 0 00 105 22c-19 10-86-24-77-46 0 0 40-41 13-60-53-36-54-76-37-100 77-124 127-24 116 0a51 51 0 00 75 0 123 123 0 01 0 94c56-11 56-113 24-126a223 223 0 00 0-71c-7-25-144-13-180-22-6-100 74-48 84-41s41-17 56-41c20 0 61 58 39 82 56-61-9-100-28-121 9-65-47-91-67-71s-100 136-131 147c-17-26-28-121-15-128s52 0 65-26a61 61 0 00 6-45c26-10 70 17 57 32 32-37-33-73-61-70-39-18-81-21-95 0-33 55 6 241-37 243-74 16-77-306-263-444-73-54-52-192 5-300 33 200 200 425 314 414a533 533 0 01-116-347s205 412 474 537c-75-95-194-335-183-453 0 0 375 515 500 476a1364 1364 0 01-244-431s350 369 619 431" fill="none"/></clipPath></defs><g clip-path="url(#a)"><path d="M-26 6h3657v1000H-26"/><path d="M-26 1006h3657v1000H-26" fill="red"/><path d="M-26 2006h3657v1000H-26" fill="#fc0"/></g></svg>